<mxfile host="Electron" agent="Mozilla/5.0 (Windows NT 10.0; Win64; x64) AppleWebKit/537.36 (KHTML, like Gecko) draw.io/26.0.16 Chrome/132.0.6834.196 Electron/34.2.0 Safari/537.36" version="26.0.16">
  <diagram name="Page-1" id="Hh0lR1mOX3gcGt3LSeun">
    <mxGraphModel dx="3718" dy="2868" grid="1" gridSize="10" guides="1" tooltips="1" connect="1" arrows="1" fold="1" page="1" pageScale="1" pageWidth="850" pageHeight="1100" math="0" shadow="0">
      <root>
        <mxCell id="0" />
        <mxCell id="1" parent="0" />
        <mxCell id="I8QDhcmOu_KrPRPoZhRy-11" value="" style="edgeStyle=orthogonalEdgeStyle;rounded=0;orthogonalLoop=1;jettySize=auto;html=1;" parent="1" source="I8QDhcmOu_KrPRPoZhRy-4" target="I8QDhcmOu_KrPRPoZhRy-10" edge="1">
          <mxGeometry relative="1" as="geometry" />
        </mxCell>
        <mxCell id="I8QDhcmOu_KrPRPoZhRy-4" value="Quiz Api Controller" style="shape=umlFrame;whiteSpace=wrap;html=1;pointerEvents=0;width=290;height=30;" parent="1" vertex="1">
          <mxGeometry x="-40" y="70" width="670" height="1030" as="geometry" />
        </mxCell>
        <mxCell id="I8QDhcmOu_KrPRPoZhRy-9" value="" style="edgeStyle=orthogonalEdgeStyle;rounded=0;orthogonalLoop=1;jettySize=auto;html=1;" parent="1" source="I8QDhcmOu_KrPRPoZhRy-7" edge="1">
          <mxGeometry relative="1" as="geometry">
            <mxPoint x="100" y="150" as="targetPoint" />
          </mxGeometry>
        </mxCell>
        <mxCell id="IvoJQrHOGTMwXtbutjUK-2" value="" style="edgeStyle=orthogonalEdgeStyle;rounded=0;orthogonalLoop=1;jettySize=auto;html=1;" parent="1" source="I8QDhcmOu_KrPRPoZhRy-7" target="IvoJQrHOGTMwXtbutjUK-3" edge="1">
          <mxGeometry relative="1" as="geometry">
            <mxPoint x="-50" y="150" as="targetPoint" />
          </mxGeometry>
        </mxCell>
        <mxCell id="I8QDhcmOu_KrPRPoZhRy-7" value="Quiz Home View" style="rounded=1;whiteSpace=wrap;html=1;" parent="1" vertex="1">
          <mxGeometry x="-140" y="120" width="120" height="60" as="geometry" />
        </mxCell>
        <mxCell id="I8QDhcmOu_KrPRPoZhRy-8" value="Show all Exams Avaiable" style="rounded=1;whiteSpace=wrap;html=1;fontSize=8;" parent="1" vertex="1">
          <mxGeometry x="280" y="130" width="100" height="30" as="geometry" />
        </mxCell>
        <mxCell id="I8QDhcmOu_KrPRPoZhRy-10" value="QuestionsProvider" style="shape=umlFrame;whiteSpace=wrap;html=1;pointerEvents=0;width=290;height=30;" parent="1" vertex="1">
          <mxGeometry x="30" y="-50" width="280" height="60" as="geometry" />
        </mxCell>
        <mxCell id="IvoJQrHOGTMwXtbutjUK-3" value="Quiz Home View Model" style="swimlane;fontStyle=0;childLayout=stackLayout;horizontal=1;startSize=26;fillColor=none;horizontalStack=0;resizeParent=1;resizeParentMax=0;resizeLast=0;collapsible=1;marginBottom=0;whiteSpace=wrap;html=1;" parent="1" vertex="1">
          <mxGeometry x="-400" y="124" width="170" height="52" as="geometry" />
        </mxCell>
        <mxCell id="IvoJQrHOGTMwXtbutjUK-4" value="+ Exams : Exam[]" style="text;strokeColor=none;fillColor=none;align=left;verticalAlign=top;spacingLeft=4;spacingRight=4;overflow=hidden;rotatable=0;points=[[0,0.5],[1,0.5]];portConstraint=eastwest;whiteSpace=wrap;html=1;" parent="IvoJQrHOGTMwXtbutjUK-3" vertex="1">
          <mxGeometry y="26" width="170" height="26" as="geometry" />
        </mxCell>
        <mxCell id="IvoJQrHOGTMwXtbutjUK-10" value="Exam" style="swimlane;fontStyle=0;childLayout=stackLayout;horizontal=1;startSize=26;fillColor=none;horizontalStack=0;resizeParent=1;resizeParentMax=0;resizeLast=0;collapsible=1;marginBottom=0;whiteSpace=wrap;html=1;" parent="1" vertex="1">
          <mxGeometry x="-660" y="150" width="170" height="78" as="geometry" />
        </mxCell>
        <mxCell id="IvoJQrHOGTMwXtbutjUK-12" value="+ Id : Guid" style="text;strokeColor=none;fillColor=none;align=left;verticalAlign=top;spacingLeft=4;spacingRight=4;overflow=hidden;rotatable=0;points=[[0,0.5],[1,0.5]];portConstraint=eastwest;whiteSpace=wrap;html=1;" parent="IvoJQrHOGTMwXtbutjUK-10" vertex="1">
          <mxGeometry y="26" width="170" height="26" as="geometry" />
        </mxCell>
        <mxCell id="IvoJQrHOGTMwXtbutjUK-13" value="+ Name : string" style="text;strokeColor=none;fillColor=none;align=left;verticalAlign=top;spacingLeft=4;spacingRight=4;overflow=hidden;rotatable=0;points=[[0,0.5],[1,0.5]];portConstraint=eastwest;whiteSpace=wrap;html=1;" parent="IvoJQrHOGTMwXtbutjUK-10" vertex="1">
          <mxGeometry y="52" width="170" height="26" as="geometry" />
        </mxCell>
        <mxCell id="IvoJQrHOGTMwXtbutjUK-9" style="edgeStyle=orthogonalEdgeStyle;rounded=0;orthogonalLoop=1;jettySize=auto;html=1;entryX=0.994;entryY=0.157;entryDx=0;entryDy=0;entryPerimeter=0;" parent="1" source="IvoJQrHOGTMwXtbutjUK-4" target="IvoJQrHOGTMwXtbutjUK-10" edge="1">
          <mxGeometry relative="1" as="geometry">
            <mxPoint x="-270" y="159" as="targetPoint" />
          </mxGeometry>
        </mxCell>
        <mxCell id="IvoJQrHOGTMwXtbutjUK-18" value="" style="edgeStyle=orthogonalEdgeStyle;rounded=0;orthogonalLoop=1;jettySize=auto;html=1;" parent="1" source="IvoJQrHOGTMwXtbutjUK-16" target="IvoJQrHOGTMwXtbutjUK-17" edge="1">
          <mxGeometry relative="1" as="geometry" />
        </mxCell>
        <mxCell id="IvoJQrHOGTMwXtbutjUK-19" value="" style="edgeStyle=orthogonalEdgeStyle;rounded=0;orthogonalLoop=1;jettySize=auto;html=1;entryX=1.006;entryY=0.386;entryDx=0;entryDy=0;entryPerimeter=0;" parent="1" source="IvoJQrHOGTMwXtbutjUK-16" target="IvoJQrHOGTMwXtbutjUK-20" edge="1">
          <mxGeometry relative="1" as="geometry">
            <mxPoint x="-40" y="270" as="targetPoint" />
          </mxGeometry>
        </mxCell>
        <mxCell id="IvoJQrHOGTMwXtbutjUK-16" value="Exam/{id}" style="rounded=1;whiteSpace=wrap;html=1;" parent="1" vertex="1">
          <mxGeometry x="30" y="220" width="120" height="60" as="geometry" />
        </mxCell>
        <mxCell id="IvoJQrHOGTMwXtbutjUK-17" value="Getting the Questions of exams" style="rounded=1;whiteSpace=wrap;html=1;" parent="1" vertex="1">
          <mxGeometry x="190" y="230" width="160" height="40" as="geometry" />
        </mxCell>
        <mxCell id="IvoJQrHOGTMwXtbutjUK-20" value="ViewModel : List&amp;lt;Question&amp;gt;" style="rounded=1;whiteSpace=wrap;html=1;" parent="1" vertex="1">
          <mxGeometry x="-240" y="220" width="120" height="60" as="geometry" />
        </mxCell>
        <mxCell id="IvoJQrHOGTMwXtbutjUK-27" value="" style="edgeStyle=orthogonalEdgeStyle;rounded=0;orthogonalLoop=1;jettySize=auto;html=1;" parent="1" source="IvoJQrHOGTMwXtbutjUK-25" target="I8QDhcmOu_KrPRPoZhRy-8" edge="1">
          <mxGeometry relative="1" as="geometry" />
        </mxCell>
        <mxCell id="IvoJQrHOGTMwXtbutjUK-25" value="Exams/" style="rounded=1;whiteSpace=wrap;html=1;" parent="1" vertex="1">
          <mxGeometry x="60" y="125" width="160" height="40" as="geometry" />
        </mxCell>
        <mxCell id="XYTXzo64b0v3MqdBlmzz-1" value="ExamsController" style="swimlane;fontStyle=1;align=center;verticalAlign=top;childLayout=stackLayout;horizontal=1;startSize=36.888888888888886;horizontalStack=0;resizeParent=1;resizeParentMax=0;resizeLast=0;collapsible=0;marginBottom=0;" vertex="1" parent="1">
          <mxGeometry x="74" y="340" width="333" height="155.88888888888889" as="geometry" />
        </mxCell>
        <mxCell id="XYTXzo64b0v3MqdBlmzz-2" style="line;strokeWidth=1;fillColor=none;align=left;verticalAlign=middle;spacingTop=-1;spacingLeft=3;spacingRight=3;rotatable=0;labelPosition=right;points=[];portConstraint=eastwest;strokeColor=inherit;" vertex="1" parent="XYTXzo64b0v3MqdBlmzz-1">
          <mxGeometry y="36.888888888888886" width="333" height="8" as="geometry" />
        </mxCell>
        <mxCell id="XYTXzo64b0v3MqdBlmzz-3" value="+Task GetExams()" style="text;strokeColor=none;fillColor=none;align=left;verticalAlign=top;spacingLeft=4;spacingRight=4;overflow=hidden;rotatable=0;points=[[0,0.5],[1,0.5]];portConstraint=eastwest;" vertex="1" parent="XYTXzo64b0v3MqdBlmzz-1">
          <mxGeometry y="44.888888888888886" width="333" height="37" as="geometry" />
        </mxCell>
        <mxCell id="XYTXzo64b0v3MqdBlmzz-4" value="+Task GetExam(string id)" style="text;strokeColor=none;fillColor=none;align=left;verticalAlign=top;spacingLeft=4;spacingRight=4;overflow=hidden;rotatable=0;points=[[0,0.5],[1,0.5]];portConstraint=eastwest;" vertex="1" parent="XYTXzo64b0v3MqdBlmzz-1">
          <mxGeometry y="81.88888888888889" width="333" height="37" as="geometry" />
        </mxCell>
        <mxCell id="XYTXzo64b0v3MqdBlmzz-5" value="+Task GetExamQuestions(string id)" style="text;strokeColor=none;fillColor=none;align=left;verticalAlign=top;spacingLeft=4;spacingRight=4;overflow=hidden;rotatable=0;points=[[0,0.5],[1,0.5]];portConstraint=eastwest;" vertex="1" parent="XYTXzo64b0v3MqdBlmzz-1">
          <mxGeometry y="118.88888888888889" width="333" height="37" as="geometry" />
        </mxCell>
        <mxCell id="XYTXzo64b0v3MqdBlmzz-6" value="&lt;&lt;interface&gt;&gt;&#xa;IExamQuestionsRepository" style="swimlane;fontStyle=1;align=center;verticalAlign=top;childLayout=stackLayout;horizontal=1;startSize=57;horizontalStack=0;resizeParent=1;resizeParentMax=0;resizeLast=0;collapsible=0;marginBottom=0;" vertex="1" parent="1">
          <mxGeometry x="70" y="587" width="341" height="179" as="geometry" />
        </mxCell>
        <mxCell id="XYTXzo64b0v3MqdBlmzz-7" style="line;strokeWidth=1;fillColor=none;align=left;verticalAlign=middle;spacingTop=-1;spacingLeft=3;spacingRight=3;rotatable=0;labelPosition=right;points=[];portConstraint=eastwest;strokeColor=inherit;" vertex="1" parent="XYTXzo64b0v3MqdBlmzz-6">
          <mxGeometry y="57" width="341" height="8" as="geometry" />
        </mxCell>
        <mxCell id="XYTXzo64b0v3MqdBlmzz-8" value="+Task&amp;gt; GetExams()" style="text;strokeColor=none;fillColor=none;align=left;verticalAlign=top;spacingLeft=4;spacingRight=4;overflow=hidden;rotatable=0;points=[[0,0.5],[1,0.5]];portConstraint=eastwest;" vertex="1" parent="XYTXzo64b0v3MqdBlmzz-6">
          <mxGeometry y="65" width="341" height="38" as="geometry" />
        </mxCell>
        <mxCell id="XYTXzo64b0v3MqdBlmzz-9" value="+Task GetExamById(string id)" style="text;strokeColor=none;fillColor=none;align=left;verticalAlign=top;spacingLeft=4;spacingRight=4;overflow=hidden;rotatable=0;points=[[0,0.5],[1,0.5]];portConstraint=eastwest;" vertex="1" parent="XYTXzo64b0v3MqdBlmzz-6">
          <mxGeometry y="103" width="341" height="38" as="geometry" />
        </mxCell>
        <mxCell id="XYTXzo64b0v3MqdBlmzz-10" value="+Task&amp;gt; GetQuestions(string id)" style="text;strokeColor=none;fillColor=none;align=left;verticalAlign=top;spacingLeft=4;spacingRight=4;overflow=hidden;rotatable=0;points=[[0,0.5],[1,0.5]];portConstraint=eastwest;" vertex="1" parent="XYTXzo64b0v3MqdBlmzz-6">
          <mxGeometry y="141" width="341" height="38" as="geometry" />
        </mxCell>
        <mxCell id="XYTXzo64b0v3MqdBlmzz-11" value="&lt;&lt;model&gt;&gt;&#xa;Exam" style="swimlane;fontStyle=1;align=center;verticalAlign=top;childLayout=stackLayout;horizontal=1;startSize=55.199999999999996;horizontalStack=0;resizeParent=1;resizeParentMax=0;resizeLast=0;collapsible=0;marginBottom=0;" vertex="1" parent="1">
          <mxGeometry x="20" y="870" width="189" height="184.2" as="geometry" />
        </mxCell>
        <mxCell id="XYTXzo64b0v3MqdBlmzz-12" value="+string Id" style="text;strokeColor=none;fillColor=none;align=left;verticalAlign=top;spacingLeft=4;spacingRight=4;overflow=hidden;rotatable=0;points=[[0,0.5],[1,0.5]];portConstraint=eastwest;" vertex="1" parent="XYTXzo64b0v3MqdBlmzz-11">
          <mxGeometry y="55.199999999999996" width="189" height="37" as="geometry" />
        </mxCell>
        <mxCell id="XYTXzo64b0v3MqdBlmzz-13" value="+string Title" style="text;strokeColor=none;fillColor=none;align=left;verticalAlign=top;spacingLeft=4;spacingRight=4;overflow=hidden;rotatable=0;points=[[0,0.5],[1,0.5]];portConstraint=eastwest;" vertex="1" parent="XYTXzo64b0v3MqdBlmzz-11">
          <mxGeometry y="92.19999999999999" width="189" height="37" as="geometry" />
        </mxCell>
        <mxCell id="XYTXzo64b0v3MqdBlmzz-14" value="+string Description" style="text;strokeColor=none;fillColor=none;align=left;verticalAlign=top;spacingLeft=4;spacingRight=4;overflow=hidden;rotatable=0;points=[[0,0.5],[1,0.5]];portConstraint=eastwest;" vertex="1" parent="XYTXzo64b0v3MqdBlmzz-11">
          <mxGeometry y="129.2" width="189" height="37" as="geometry" />
        </mxCell>
        <mxCell id="XYTXzo64b0v3MqdBlmzz-15" style="line;strokeWidth=1;fillColor=none;align=left;verticalAlign=middle;spacingTop=-1;spacingLeft=3;spacingRight=3;rotatable=0;labelPosition=right;points=[];portConstraint=eastwest;strokeColor=inherit;" vertex="1" parent="XYTXzo64b0v3MqdBlmzz-11">
          <mxGeometry y="166.2" width="189" height="18" as="geometry" />
        </mxCell>
        <mxCell id="XYTXzo64b0v3MqdBlmzz-16" value="&lt;&lt;model&gt;&gt;&#xa;Question" style="swimlane;fontStyle=1;align=center;verticalAlign=top;childLayout=stackLayout;horizontal=1;startSize=52;horizontalStack=0;resizeParent=1;resizeParentMax=0;resizeLast=0;collapsible=0;marginBottom=0;" vertex="1" parent="1">
          <mxGeometry x="259" y="858" width="216" height="209" as="geometry" />
        </mxCell>
        <mxCell id="XYTXzo64b0v3MqdBlmzz-17" value="+string Id" style="text;strokeColor=none;fillColor=none;align=left;verticalAlign=top;spacingLeft=4;spacingRight=4;overflow=hidden;rotatable=0;points=[[0,0.5],[1,0.5]];portConstraint=eastwest;" vertex="1" parent="XYTXzo64b0v3MqdBlmzz-16">
          <mxGeometry y="52" width="216" height="35" as="geometry" />
        </mxCell>
        <mxCell id="XYTXzo64b0v3MqdBlmzz-18" value="+string Text" style="text;strokeColor=none;fillColor=none;align=left;verticalAlign=top;spacingLeft=4;spacingRight=4;overflow=hidden;rotatable=0;points=[[0,0.5],[1,0.5]];portConstraint=eastwest;" vertex="1" parent="XYTXzo64b0v3MqdBlmzz-16">
          <mxGeometry y="87" width="216" height="35" as="geometry" />
        </mxCell>
        <mxCell id="XYTXzo64b0v3MqdBlmzz-19" value="+List&lt;string&gt; Answers" style="text;strokeColor=none;fillColor=none;align=left;verticalAlign=top;spacingLeft=4;spacingRight=4;overflow=hidden;rotatable=0;points=[[0,0.5],[1,0.5]];portConstraint=eastwest;" vertex="1" parent="XYTXzo64b0v3MqdBlmzz-16">
          <mxGeometry y="122" width="216" height="35" as="geometry" />
        </mxCell>
        <mxCell id="XYTXzo64b0v3MqdBlmzz-20" value="+string CorrectAnswer" style="text;strokeColor=none;fillColor=none;align=left;verticalAlign=top;spacingLeft=4;spacingRight=4;overflow=hidden;rotatable=0;points=[[0,0.5],[1,0.5]];portConstraint=eastwest;" vertex="1" parent="XYTXzo64b0v3MqdBlmzz-16">
          <mxGeometry y="157" width="216" height="35" as="geometry" />
        </mxCell>
        <mxCell id="XYTXzo64b0v3MqdBlmzz-21" style="line;strokeWidth=1;fillColor=none;align=left;verticalAlign=middle;spacingTop=-1;spacingLeft=3;spacingRight=3;rotatable=0;labelPosition=right;points=[];portConstraint=eastwest;strokeColor=inherit;" vertex="1" parent="XYTXzo64b0v3MqdBlmzz-16">
          <mxGeometry y="192" width="216" height="17" as="geometry" />
        </mxCell>
        <mxCell id="XYTXzo64b0v3MqdBlmzz-22" value="depends on" style="curved=1;startArrow=none;endArrow=open;endSize=12;exitX=0.5;exitY=1;entryX=0.5;entryY=0;rounded=0;" edge="1" parent="1" source="XYTXzo64b0v3MqdBlmzz-1" target="XYTXzo64b0v3MqdBlmzz-6">
          <mxGeometry relative="1" as="geometry">
            <Array as="points" />
          </mxGeometry>
        </mxCell>
        <mxCell id="XYTXzo64b0v3MqdBlmzz-23" value="returns" style="curved=1;startArrow=none;endArrow=open;endSize=12;exitX=0.23;exitY=1;entryX=0.5;entryY=0;rounded=0;" edge="1" parent="1" source="XYTXzo64b0v3MqdBlmzz-6" target="XYTXzo64b0v3MqdBlmzz-11">
          <mxGeometry relative="1" as="geometry">
            <Array as="points">
              <mxPoint x="114" y="822" />
            </Array>
          </mxGeometry>
        </mxCell>
        <mxCell id="XYTXzo64b0v3MqdBlmzz-24" value="returns" style="curved=1;startArrow=none;endArrow=open;endSize=12;exitX=0.77;exitY=1;entryX=0.5;entryY=0;rounded=0;" edge="1" parent="1" source="XYTXzo64b0v3MqdBlmzz-6" target="XYTXzo64b0v3MqdBlmzz-16">
          <mxGeometry relative="1" as="geometry">
            <Array as="points">
              <mxPoint x="367" y="822" />
            </Array>
          </mxGeometry>
        </mxCell>
      </root>
    </mxGraphModel>
  </diagram>
</mxfile>
